# xmcd
# 
# Track frame offsets:
#     150
#     3697
#     28740
#     53230
#     80927
#     104947
#     127230
#     146430
#     172095
#     197572
#     221232
#     244835
#     271125
#     293120
#     312415
#     329025
# 
# Disc length: 4667
# 
# Revision: 5
# Processed by: cddbd v1.5.2PL0 Copyright (c) Steve Scherf et al.
# Submitted via: fre:ac v1.0.31
# 
DISCID=0c123910
DTITLE=Hill, Lauryn - The Miseducation Of Lauryn Hill
DYEAR=1998
DGENRE=Pop
TTITLE0=Intro
TTITLE1=Lost Ones
TTITLE2=Ex-Factor
TTITLE3=To Zion
TTITLE4=Doo Wop (That Thing)
TTITLE5=Superstar
TTITLE6=Final Hour
TTITLE7=When It Hurts So Bad
TTITLE8=I Used To Love Him
TTITLE9=Forgive Them Father
TTITLE10=Every Ghetto, Every City
TTITLE11=Nothing Even Matters
TTITLE12=Everything Is Everything
TTITLE13=The Miseducation Of Lauryn Hill
TTITLE14=Can't Take My Eyes Off Of You [hidden bonus track]
TTITLE15=Tell Him [hidden bonus track]
EXTD=Columbia\nRuffhouse Records YEAR: 1998
EXTT0=
EXTT1=
EXTT2=
EXTT3=
EXTT4=
EXTT5=
EXTT6=
EXTT7=
EXTT8=
EXTT9=
EXTT10=
EXTT11=
EXTT12=
EXTT13=
EXTT14=
EXTT15=
PLAYORDER=
